Coordinates
version=1
nRows=26
nColumns=24
inDegrees=yes

Units are S.I. units (second, meters, Newtons, ...)
Angles are in degrees.

endheader
time	pelvis_tilt	pelvis_list	pelvis_rotation	pelvis_tx	pelvis_ty	pelvis_tz	hip_flexion_r	hip_adduction_r	hip_rotation_r	knee_angle_r	ankle_angle_r	subtalar_angle_r	mtp_angle_r	hip_flexion_l	hip_adduction_l	hip_rotation_l	knee_angle_l	ankle_angle_l	subtalar_angle_l	mtp_angle_l	lumbar_extension	lumbar_bending	lumbar_rotation
      7.68000000	     -3.24623046	      0.38737509	     -8.28499521	      0.88275533	      0.65931077	     -0.17479638	    -13.01937689	      1.06093617	      2.72280912	    -12.91335033	     15.12269361	     -7.51652305	      0.00000000	     25.04567345	      0.65993758	    -12.66711885	     -9.81666120	      3.25128905	    -13.79485848	      0.00000000	     -7.60329726	      0.20000906	      6.54314019
      7.69000000	     -3.11972948	      0.67822647	     -8.51885342	      0.89303976	      0.65890022	     -0.17540347	    -13.35239724	      0.43413717	      2.85162167	    -14.07842472	     14.09035014	     -7.24337911	      0.00000000	     24.57792899	      1.08394121	    -12.18743265	    -10.50091349	      1.53768566	    -15.61883297	      0.00000000	     -7.33675472	     -0.18501568	      6.62348831
      7.70000000	     -3.04430817	      1.12425176	     -8.56109068	      0.90320750	      0.65871827	     -0.17620306	    -13.41881289	     -0.26326675	      3.01982866	    -15.55740750	     12.70973244	     -7.40240087	      0.00000000	     24.32946694	      1.68740789	    -11.86880950	    -11.40857680	      0.14682803	    -17.12459911	      0.00000000	     -7.01838110	     -0.71896407	      6.41399890
      7.71000000	     -2.92207092	      1.51332081	     -8.39510793	      0.91312335	      0.65893505	     -0.17721735	    -13.30293365	     -0.82309215	      3.11771603	    -17.39055040	     10.79450624	     -7.74448553	      0.00000000	     24.12555737	      2.30854926	    -11.33258964	    -12.52167973	     -0.81958863	    -18.33773440	      0.00000000	     -6.85495273	     -1.16389695	      6.09024170
      7.72000000	     -2.75442853	      1.99059240	     -8.09938729	      0.92282899	      0.65948202	     -0.17835876	    -12.91213629	     -1.43659817	      2.98604584	    -19.70985325	      8.82536621	     -7.83647695	      0.00000000	     23.98583010	      3.01326163	    -11.10576614	    -13.90592135	     -0.84546390	    -18.63828526	      0.00000000	     -6.80981444	     -1.71708912	      5.66242957
      7.73000000	     -2.61980527	      2.37938827	     -7.74717751	      0.93223521	      0.66022103	     -0.17952440	    -12.24915960	     -1.86053898	      3.12666456	    -22.33502822	      6.07146188	     -8.76781211	      0.00000000	     23.88672226	      3.63713159	    -10.84927583	    -15.38735732	     -0.40436547	    -18.91894633	      0.00000000	     -6.83382248	     -2.15937585	      5.24878020
      7.74000000	     -2.45422993	      2.67814005	     -7.52699630	      0.94139812	      0.66118036	     -0.18056503	    -11.32894798	     -2.17950420	      3.48555791	    -25.31493049	      2.75484394	     -9.63774325	      0.00000000	     23.61144558	      4.12225070	    -10.79181394	    -16.67714129	      0.53820340	    -18.68819601	      0.00000000	     -6.97156413	     -2.53035408	      5.09074417
      7.75000000	     -2.29871864	      2.99782031	     -7.40043896	      0.95033150	      0.66214267	     -0.18154330	    -10.08163889	     -2.53061710	      3.81445606	    -28.66912538	     -0.74423032	    -10.34538050	      0.00000000	     23.20712070	      4.60460970	    -10.89489799	    -17.70666842	      1.69200385	    -18.26731288	      0.00000000	     -7.15075249	     -2.94816650	      5.03695284
      7.76000000	     -2.13679698	      3.30300609	     -7.43911407	      0.95901325	      0.66305338	     -0.18239712	     -8.56188080	     -2.88222792	      4.24427823	    -32.30190361	     -4.40026512	    -10.91015988	      0.00000000	     22.63247329	      5.04448488	    -11.10499444	    -18.40743446	      2.88406555	    -17.82904934	      0.00000000	     -7.38853993	     -3.37678213	      5.15695947
      7.77000000	     -1.98436994	      3.61185166	     -7.63607776	      0.96744391	      0.66382794	     -0.18313283	     -6.78775433	     -3.24435755	      4.75378329	    -36.13778967	     -7.97470695	    -11.33626752	      0.00000000	     21.93454025	      5.47139062	    -11.38411802	    -18.80743044	      4.00651552	    -17.49217472	      0.00000000	     -7.64489473	     -3.82726106	      5.36951184
      7.78000000	     -1.84557912	      3.93735585	     -7.94043878	      0.97562127	      0.66442653	     -0.18378459	     -4.80815700	     -3.60857327	      5.30586528	    -40.08256845	    -11.21216601	    -11.71539413	      0.00000000	     21.17090508	      5.91503851	    -11.68843891	    -18.98919603	      5.03408555	    -17.28562126	      0.00000000	     -7.90886885	     -4.29685924	      5.57596871
      7.79000000	     -1.72879825	      4.28015767	     -8.28342193	      0.98357212	      0.66485954	     -0.18438447	     -2.68819895	     -3.94691558	      5.86236091	    -44.01368029	    -13.91741080	    -12.23594335	      0.00000000	     20.39747505	      6.39103920	    -11.96159388	    -19.04417962	      5.98197805	    -17.17179137	      0.00000000	     -8.15359570	     -4.77231590	      5.67469028
      7.80000000	     -1.63661331	      4.63444244	     -8.58623004	      0.99132642	      0.66516646	     -0.18498924	     -0.49113082	     -4.25356004	      6.32280417	    -47.81935571	    -15.94170567	    -13.05753695	      0.00000000	     19.66533088	      6.89858242	    -12.18818815	    -19.07252842	      6.81305295	    -17.13806555	      0.00000000	     -8.37401568	     -5.23156466	      5.62369027
      7.81000000	     -1.55621891	      5.01240025	     -8.79809076	      0.99897009	      0.66545108	     -0.18559943	      1.68955723	     -4.52018308	      6.71224249	    -51.37053549	    -17.15725678	    -14.28575036	      0.00000000	     18.93537755	      7.46551914	    -12.29449627	    -19.04239252	      7.55796653	    -17.06647810	      0.00000000	     -8.55429578	     -5.68878463	      5.29718500
      7.82000000	     -1.54367292	      5.29430984	     -8.85458178	      1.00649800	      0.66573953	     -0.18625371	      3.84638687	     -4.62872971	      6.94335651	    -54.55637130	    -17.77477165	    -16.07432429	      0.00000000	     18.30357799	      7.94498720	    -12.29207413	    -19.09658924	      8.36310346	    -16.87837839	      0.00000000	     -8.66151599	     -6.00153091	      4.84000597
      7.83000000	     -1.54861787	      5.47692488	     -8.76057375	      1.01394560	      0.66613062	     -0.18694682	      5.89709866	     -4.60099336	      7.02307514	    -57.31987421	    -17.64686888	    -18.29627598	      0.00000000	     17.68907984	      8.33169985	    -12.21241910	    -19.19752559	      9.19808020	    -16.49859612	      0.00000000	     -8.75365830	     -6.18694727	      4.28966601
      7.84000000	     -1.46014300	      5.63694750	     -8.51602099	      1.02137559	      0.66673969	     -0.18775610	      7.73647845	     -4.58314361	      6.93841241	    -59.65793130	    -16.61858749	    -20.33103523	      0.00000000	     16.89401806	      8.77586372	    -11.86366696	    -19.15820466	      9.89214059	    -16.21152230	      0.00000000	     -8.95198738	     -6.35319584	      3.58832288
      7.85000000	     -1.53788491	      5.63865021	     -8.18936210	      1.02875943	      0.66736648	     -0.18858931	      9.61344995	     -4.34294441	      6.84290180	    -61.51213259	    -15.39401106	    -22.63117127	      0.00000000	     16.22207802	      9.01508915	    -11.55961407	    -19.08897037	     10.62979415	    -15.70954050	      0.00000000	     -8.94165232	     -6.29147207	      2.79223222
      7.86000000	     -1.62251031	      5.42695826	     -7.83406136	      1.03601972	      0.66810472	     -0.18938961	     11.37808224	     -3.86202270	      6.72625884	    -62.90417348	    -13.96519328	    -24.86887304	      0.00000000	     15.55995250	      8.98091543	    -11.41392192	    -19.10438767	     11.45684250	    -14.84986615	      0.00000000	     -8.96809163	     -6.01475757	      2.21237498
      7.87000000	     -1.57827106	      5.20029070	     -7.41994952	      1.04327316	      0.66900623	     -0.19031921	     12.92139462	     -3.43196019	      6.54974000	    -63.88728285	    -12.23004692	    -26.52545009	      0.00000000	     14.64603830	      9.03364415	    -10.92588615	    -18.88105744	     12.07094023	    -14.54360364	      0.00000000	     -9.15252006	     -5.72932807	      1.55101257
      7.88000000	     -1.64701487	      4.82302588	     -6.98883759	      1.05045169	      0.66986980	     -0.19121946	     14.48668565	     -2.83180944	      6.36573985	    -64.45195461	    -10.48888710	    -27.76361291	      0.00000000	     13.84321076	      8.86482211	    -10.60126249	    -18.68013346	     12.74182274	    -13.84425953	      0.00000000	     -9.21478279	     -5.27344392	      1.01424391
      7.89000000	     -1.66181674	      4.41179792	     -6.53560613	      1.05757806	      0.67077440	     -0.19214768	     15.90651637	     -2.22686330	      6.18028761	    -64.62032464	     -9.01885349	    -28.76610682	      0.00000000	     12.93588193	      8.69904489	    -10.09153086	    -18.36607638	     13.27512100	    -13.53786223	      0.00000000	     -9.35907698	     -4.78745056	      0.46070809
      7.90000000	     -1.70131498	      3.96242880	     -6.05642293	      1.06465824	      0.67163436	     -0.19306004	     17.26508666	     -1.61719784	      5.95536736	    -64.40623903	     -7.74058767	    -29.46550036	      0.00000000	     12.04744831	      8.47159230	     -9.60628755	    -18.02284511	     13.78673157	    -13.26426416	      0.00000000	     -9.47999558	     -4.26400743	     -0.05282324
      7.91000000	     -1.71715499	      3.51355461	     -5.56529113	      1.07165259	      0.67245829	     -0.19392827	     18.53360897	     -1.04176939	      5.72158836	    -63.87074190	     -6.33987452	    -29.56084002	      0.00000000	     11.16355036	      8.20654616	     -9.20029965	    -17.71692869	     14.31080965	    -12.64016345	      0.00000000	     -9.65417387	     -3.75811539	     -0.53769482
      7.92000000	     -1.76610933	      3.09230257	     -5.04599488	      1.07855363	      0.67314715	     -0.19475794	     19.75472936	     -0.51889370	      5.48890424	    -62.98763994	     -5.41509018	    -29.87620832	      0.00000000	     10.34145410	      7.96286174	     -8.69829486	    -17.42261488	     14.80184356	    -12.36748217	      0.00000000	     -9.80227269	     -3.28908446	     -1.09048674
      7.93000000	     -1.74038141	      2.70932137	     -4.49634518	      1.08542245	      0.67380014	     -0.19555014	     20.81829063	     -0.10841622	      5.18533526	    -61.79856237	     -4.28020503	    -29.76342728	      0.00000000	      9.47120715	      7.71979557	     -8.33341103	    -17.16890557	     15.33592513	    -11.72991943	      0.00000000	    -10.03972768	     -2.88293852	     -1.58055202
